<svg width="288" height="89" viewBox="0 0 288 89" fill="none" xmlns="http://www.w3.org/2000/svg">
<path d="M0 79.2282V43.969H4.34284V58.8786H17.0684V43.969H21.4112V79.2282H17.0684V63.009H4.34284V79.2282H0Z" fill="white"/>
<path d="M82.3077 79.2282L75.844 53.489H80.0353L83.9237 70.2119L84.3277 72.3275C84.597 70.9171 84.7316 70.1615 84.7316 70.0608L88.418 53.489H91.8519L95.5887 70.1112C95.7234 70.7492 95.8749 71.5383 96.0432 72.4786C96.1106 71.7734 96.262 70.9842 96.4977 70.1112L100.235 53.489H104.426L97.9622 79.2282H94.2758L90.6399 63.2608L90.0844 60.5408C89.9834 61.1453 89.8151 62.0183 89.5795 63.1601L86.0446 79.2282H82.3077Z" fill="white"/>
<path d="M120.444 79.8326C117.011 79.8326 114.301 78.6237 112.314 76.206C110.328 73.7882 109.335 70.4973 109.335 66.3334C109.335 62.1695 110.328 58.8954 112.314 56.5112C114.334 54.0934 117.027 52.8845 120.394 52.8845C123.155 52.8845 125.477 53.6905 127.363 55.3023V44.926L131.655 42.8609V79.2282H127.363V77.1126C125.679 78.926 123.373 79.8326 120.444 79.8326ZM121 75.8534C123.895 75.8534 126.016 74.6781 127.363 72.3275V60.1379C125.881 57.9216 123.744 56.8134 120.949 56.8134C118.627 56.8134 116.842 57.6361 115.597 59.2816C114.351 60.927 113.728 63.2776 113.728 66.3334C113.728 69.087 114.385 71.3704 115.698 73.1837C117.011 74.9635 118.778 75.8534 121 75.8534Z" fill="white"/>
<path d="M146.361 89L150.249 78.523L140.705 53.489H145.098L151.41 70.9171C151.646 71.5551 151.915 72.4114 152.218 73.486C152.286 73.2845 152.37 73.0159 152.471 72.68C152.606 72.3107 152.723 71.9917 152.824 71.723C152.925 71.4208 153.01 71.1522 153.077 70.9171L159.49 53.489H163.985L150.703 89H146.361Z" fill="white"/>
<path d="M171.772 79.2282V43.969H183.689C187.662 43.969 190.54 44.8757 192.325 46.689C194.109 48.4688 195.001 50.7018 195.001 53.3882C195.001 56.847 193.469 59.2648 190.406 60.6416C192.291 61.2796 193.722 62.3541 194.698 63.8653C195.708 65.3764 196.213 67.0554 196.213 68.9023C196.213 71.723 195.253 74.1576 193.335 76.206C191.449 78.2208 188.487 79.2282 184.447 79.2282H171.772ZM177.781 58.2238H182.881C184.901 58.2238 186.416 57.8376 187.426 57.0653C188.47 56.2593 188.992 55.168 188.992 53.7912C188.992 50.9369 187.275 49.5097 183.841 49.5097H177.781V58.2238ZM177.781 73.6875H184.851C186.77 73.6875 188.133 73.2341 188.941 72.3275C189.783 71.3872 190.204 70.2623 190.204 68.9526C190.204 65.4603 187.931 63.7141 183.386 63.7141H177.781V73.6875Z" fill="white"/>
<path d="M212.636 79.8326C209.808 79.8326 207.502 79.0939 205.717 77.6163C203.967 76.1388 203.091 74.0233 203.091 71.2697C203.091 68.4825 204.101 66.367 206.121 64.923C208.141 63.4791 210.565 62.7571 213.393 62.7571C215.851 62.7571 217.988 63.2104 219.806 64.1171V62.606C219.806 59.5166 218.106 57.9719 214.706 57.9719C211.878 57.9719 209.151 58.845 206.525 60.5912L204.758 55.8564C207.889 53.8752 211.373 52.8845 215.211 52.8845C222.045 52.8845 225.462 56.1082 225.462 62.5556V79.2282H219.806V77.2134C217.988 78.9595 215.598 79.8326 212.636 79.8326ZM213.696 74.7452C216.12 74.7452 218.157 73.8889 219.806 72.1763V68.8519C218.258 68.0796 216.423 67.6934 214.302 67.6934C212.686 67.6934 211.339 67.9956 210.262 68.6001C209.218 69.2045 208.697 70.0944 208.697 71.2697C208.697 72.3107 209.134 73.1502 210.01 73.7882C210.885 74.4262 212.114 74.7452 213.696 74.7452Z" fill="white"/>
<path d="M247.54 52.8845C250.368 52.8845 252.658 53.7408 254.408 55.4534C256.192 57.1324 257.085 59.8188 257.085 63.5127V79.2282H251.277V64.7215C251.277 62.5053 250.789 60.8934 249.813 59.886C248.836 58.8786 247.54 58.3749 245.924 58.3749C242.12 58.3749 240.218 60.4569 240.218 64.6208V79.2282H234.411V53.489H239.764V56.6623C240.269 55.6549 241.245 54.7818 242.693 54.0431C244.174 53.2707 245.79 52.8845 247.54 52.8845Z" fill="white"/>
<path d="M275.931 79.8326C272.396 79.8326 269.619 78.6573 267.599 76.3067C265.579 73.9225 264.569 70.5981 264.569 66.3334C264.569 62.203 265.596 58.929 267.649 56.5112C269.737 54.0934 272.447 52.8845 275.779 52.8845C278.54 52.8845 280.678 53.7073 282.193 55.3527V45.5305L288 42.8609V79.2282H282.193V77.2637C281.654 77.9689 280.812 78.5734 279.668 79.0771C278.557 79.5808 277.311 79.8326 275.931 79.8326ZM276.739 74.2919C279.264 74.2919 281.082 73.4524 282.193 71.7734V60.8934C280.981 59.2144 279.129 58.3749 276.638 58.3749C274.652 58.3749 273.12 59.0633 272.043 60.4401C270.965 61.8169 270.427 63.7813 270.427 66.3334C270.427 68.7512 270.965 70.682 272.043 72.126C273.154 73.5699 274.719 74.2919 276.739 74.2919Z" fill="white"/>
<path d="M111.712 13.4433L112.856 12.497C112.903 12.4586 112.947 12.4183 112.99 12.3759C114.381 10.9872 114.381 8.72742 112.989 7.33908L106.676 1.04194C106.002 0.369968 105.105 0 104.153 0C103.199 0 102.303 0.370242 101.628 1.04221C101.586 1.08469 101.545 1.12909 101.506 1.1754L100.558 2.31792L99.7874 1.54948C99.0365 0.800776 97.8191 0.800502 97.0677 1.54921C96.3166 2.29819 96.3166 3.51278 97.0675 4.26204L98.0928 5.28479L97.3922 6.12805L96.416 5.15489C95.6652 4.40591 94.4472 4.40619 93.6963 5.15571C92.9457 5.90497 92.946 7.11956 93.6972 7.86854L94.9277 9.09519L94.1384 10.0456C93.5559 10.6584 93.1933 11.4342 93.1139 12.2421C93.0793 12.5943 93.1018 12.9415 93.1743 13.2728L61.5299 44.8358C58.0937 42.7582 54.1448 41.6466 50.0236 41.6466C44.0782 41.6466 38.4888 43.9563 34.2849 48.1496C30.0808 52.3428 27.7656 57.9181 27.7656 63.848C27.7656 69.7782 30.0808 75.353 34.2849 79.5465C38.4891 83.7397 44.0785 86.0491 50.0239 86.0491C55.9691 86.0491 61.5582 83.7397 65.7618 79.5467C69.9662 75.3532 72.2814 69.7779 72.2812 63.8478C72.2812 59.7373 71.1668 55.7986 69.084 52.3713L100.729 20.8076C100.955 20.8566 101.189 20.884 101.428 20.884C102.345 20.884 103.263 20.5072 103.963 19.8467L104.916 19.0594L106.146 20.2863C106.521 20.6607 107.014 20.8481 107.506 20.8481C107.998 20.8481 108.49 20.6607 108.866 20.2863C109.617 19.5371 109.617 18.3225 108.866 17.5732L107.891 16.6006L108.736 15.9021L109.761 16.9243C110.137 17.2986 110.629 17.4861 111.121 17.4861C111.613 17.4861 112.106 17.2986 112.481 16.9243C113.232 16.175 113.232 14.9604 112.481 14.2112L111.712 13.4433ZM104.176 3.97428L110.05 9.83348L101.525 16.8782L97.1133 12.4772L104.176 3.97428ZM68.4348 63.8478C68.4348 68.753 66.5195 73.3647 63.0418 76.8339C59.5649 80.3023 54.9415 82.2124 50.0236 82.2124C45.1057 82.2124 40.4818 80.302 37.0041 76.8334C33.5269 73.365 31.612 68.7533 31.612 63.848C31.612 58.9428 33.5269 54.3311 37.0046 50.8627C40.4821 47.3938 45.1055 45.4834 50.0236 45.4834C53.1052 45.4834 56.0707 46.2337 58.7113 47.6473L45.0373 61.2859L43.5754 59.8277C42.8243 59.079 41.6066 59.079 40.8554 59.8277C40.1046 60.577 40.1046 61.7916 40.8554 62.5408L42.3174 63.999L39.6735 66.636C38.9223 67.3852 38.9223 68.5998 39.6732 69.3488C40.0488 69.7234 40.5409 69.9109 41.0332 69.9109C41.5253 69.9109 42.0176 69.7234 42.3929 69.3491L45.037 66.7119L47.1517 68.8212L44.5082 71.4581C43.757 72.2074 43.757 73.422 44.5079 74.171C44.8835 74.5456 45.3755 74.7331 45.8679 74.7331C46.3599 74.7331 46.8523 74.5456 47.2276 74.1712L49.8714 71.5341L51.3333 72.9923C51.7089 73.3666 52.2013 73.5541 52.6933 73.5541C53.1854 73.5541 53.6777 73.3666 54.0533 72.9923C54.8042 72.243 54.8042 71.0284 54.0533 70.2792L52.5914 68.821L66.2654 55.1823C67.6825 57.8167 68.4348 60.7746 68.4348 63.8478ZM63.0421 50.8627C63.3973 51.217 63.7317 51.5859 64.054 51.9633L49.872 66.1087L47.7573 63.9993L61.9393 49.8536C62.3173 50.1748 62.6868 50.5086 63.0421 50.8627ZM65.7621 48.1496C65.4074 47.7958 65.0395 47.4604 64.6658 47.134L95.5426 16.3362L97.6573 18.4455L66.7805 49.2433C66.453 48.8706 66.1167 48.5034 65.7621 48.1496Z" fill="white"/>
</svg>
