<svg width="164" height="119" viewBox="0 0 164 119" fill="none" xmlns="http://www.w3.org/2000/svg">
<path d="M0 79.2282V43.969H4.34284V58.8786H17.0684V43.969H21.4112V79.2282H17.0684V63.009H4.34284V79.2282H0Z" fill="black"/>
<path d="M82.3077 79.2282L75.844 53.489H80.0353L83.9237 70.2119L84.3277 72.3275C84.597 70.9171 84.7316 70.1615 84.7316 70.0608L88.418 53.489H91.8519L95.5887 70.1112C95.7234 70.7492 95.8749 71.5383 96.0432 72.4786C96.1106 71.7734 96.2621 70.9842 96.4977 70.1112L100.235 53.489H104.426L97.9622 79.2282H94.2758L90.6399 63.2608L90.0844 60.5408C89.9834 61.1453 89.8151 62.0183 89.5795 63.1601L86.0446 79.2282H82.3077Z" fill="black"/>
<path d="M120.444 79.8326C117.011 79.8326 114.301 78.6237 112.314 76.206C110.328 73.7882 109.335 70.4973 109.335 66.3334C109.335 62.1695 110.328 58.8954 112.314 56.5112C114.334 54.0934 117.027 52.8845 120.394 52.8845C123.155 52.8845 125.477 53.6905 127.363 55.3023V44.926L131.655 42.8609V79.2282H127.363V77.1126C125.679 78.926 123.373 79.8326 120.444 79.8326ZM121 75.8534C123.895 75.8534 126.016 74.6781 127.363 72.3275V60.1379C125.881 57.9216 123.744 56.8134 120.949 56.8134C118.627 56.8134 116.842 57.6361 115.597 59.2816C114.351 60.927 113.728 63.2776 113.728 66.3334C113.728 69.087 114.385 71.3704 115.698 73.1837C117.011 74.9635 118.778 75.8534 121 75.8534Z" fill="black"/>
<path d="M146.361 89L150.249 78.523L140.705 53.489H145.098L151.41 70.9171C151.646 71.5551 151.915 72.4114 152.218 73.486C152.286 73.2845 152.37 73.0158 152.471 72.68C152.606 72.3107 152.723 71.9917 152.824 71.723C152.925 71.4208 153.01 71.1522 153.077 70.9171L159.49 53.489H163.985L150.703 89H146.361Z" fill="black"/>
<path d="M111.712 13.4433L112.856 12.497C112.903 12.4586 112.947 12.4183 112.99 12.3759C114.381 10.9872 114.381 8.72742 112.989 7.33908L106.676 1.04194C106.002 0.369968 105.105 0 104.153 0C103.199 0 102.303 0.370242 101.628 1.04221C101.586 1.08469 101.545 1.12909 101.506 1.1754L100.558 2.31792L99.7874 1.54948C99.0365 0.800776 97.8192 0.800502 97.0677 1.54921C96.3166 2.29819 96.3166 3.51278 97.0675 4.26204L98.0928 5.28479L97.3922 6.12805L96.416 5.15489C95.6652 4.40591 94.4472 4.40619 93.6963 5.15571C92.9457 5.90497 92.946 7.11956 93.6972 7.86854L94.9277 9.09519L94.1384 10.0456C93.5559 10.6584 93.1933 11.4342 93.1139 12.2421C93.0793 12.5943 93.1018 12.9415 93.1743 13.2728L61.5299 44.8358C58.0937 42.7582 54.1448 41.6466 50.0236 41.6466C44.0782 41.6466 38.4888 43.9563 34.2849 48.1496C30.0808 52.3428 27.7656 57.9181 27.7656 63.848C27.7656 69.7782 30.0808 75.353 34.2849 79.5465C38.4891 83.7397 44.0785 86.0491 50.0239 86.0491C55.9691 86.0491 61.5582 83.7397 65.7618 79.5467C69.9662 75.3532 72.2814 69.7779 72.2812 63.8478C72.2812 59.7373 71.1668 55.7986 69.084 52.3713L100.729 20.8076C100.955 20.8566 101.189 20.884 101.428 20.884C102.345 20.884 103.263 20.5072 103.963 19.8467L104.916 19.0594L106.146 20.2863C106.521 20.6607 107.014 20.8481 107.506 20.8481C107.998 20.8481 108.49 20.6607 108.866 20.2863C109.617 19.5371 109.617 18.3225 108.866 17.5732L107.891 16.6006L108.736 15.9021L109.761 16.9243C110.137 17.2986 110.629 17.4861 111.121 17.4861C111.613 17.4861 112.106 17.2986 112.481 16.9243C113.232 16.175 113.232 14.9604 112.481 14.2112L111.712 13.4433ZM104.176 3.97428L110.05 9.83348L101.525 16.8782L97.1133 12.4772L104.176 3.97428ZM68.4348 63.8478C68.4348 68.753 66.5195 73.3647 63.0418 76.8339C59.5649 80.3023 54.9415 82.2124 50.0236 82.2124C45.1057 82.2124 40.4818 80.302 37.0041 76.8334C33.5269 73.365 31.612 68.7533 31.612 63.848C31.612 58.9428 33.5269 54.3311 37.0046 50.8627C40.4821 47.3938 45.1054 45.4834 50.0236 45.4834C53.1052 45.4834 56.0707 46.2337 58.7113 47.6473L45.0373 61.2859L43.5754 59.8277C42.8243 59.079 41.6066 59.079 40.8554 59.8277C40.1046 60.577 40.1046 61.7916 40.8554 62.5408L42.3174 63.999L39.6735 66.636C38.9223 67.3852 38.9223 68.5998 39.6732 69.3488C40.0488 69.7234 40.5409 69.9109 41.0332 69.9109C41.5253 69.9109 42.0176 69.7234 42.3929 69.3491L45.037 66.7119L47.1517 68.8212L44.5082 71.4581C43.757 72.2074 43.757 73.422 44.5079 74.171C44.8835 74.5456 45.3755 74.7331 45.8679 74.7331C46.3599 74.7331 46.8523 74.5456 47.2276 74.1712L49.8714 71.5341L51.3333 72.9923C51.7089 73.3666 52.2013 73.5541 52.6933 73.5541C53.1854 73.5541 53.6777 73.3666 54.0533 72.9923C54.8042 72.243 54.8042 71.0284 54.0533 70.2792L52.5914 68.821L66.2654 55.1823C67.6825 57.8167 68.4348 60.7746 68.4348 63.8478ZM63.0421 50.8627C63.3973 51.217 63.7317 51.5859 64.054 51.9633L49.872 66.1087L47.7573 63.9993L61.9393 49.8536C62.3173 50.1748 62.6868 50.5086 63.0421 50.8627ZM65.7621 48.1496C65.4074 47.7958 65.0395 47.4604 64.6658 47.134L95.5426 16.3362L97.6573 18.4455L66.7805 49.2433C66.453 48.8706 66.1167 48.5034 65.7621 48.1496Z" fill="black"/>
<path d="M10 118.367V83.1081H21.9176C25.8901 83.1081 28.7685 84.0148 30.5527 85.8281C32.337 87.6079 33.2291 89.841 33.2291 92.5274C33.2291 95.9861 31.6974 98.4039 28.6338 99.7807C30.5191 100.419 31.9499 101.493 32.9261 103.004C33.9361 104.515 34.4411 106.194 34.4411 108.041C34.4411 110.862 33.4816 113.297 31.5627 115.345C29.6774 117.36 26.7149 118.367 22.675 118.367H10ZM16.0093 97.3629H21.1096C23.1295 97.3629 24.6445 96.9768 25.6544 96.2044C26.698 95.3985 27.2199 94.3071 27.2199 92.9303C27.2199 90.076 25.5029 88.6489 22.0691 88.6489H16.0093V97.3629ZM16.0093 112.827H23.079C24.998 112.827 26.3614 112.373 27.1694 111.467C28.011 110.526 28.4318 109.401 28.4318 108.092C28.4318 104.599 26.1594 102.853 21.6146 102.853H16.0093V112.827Z" fill="black"/>
<path d="M50.8636 118.972C48.0358 118.972 45.7297 118.233 43.9454 116.755C42.1948 115.278 41.3195 113.162 41.3195 110.409C41.3195 107.622 42.3295 105.506 44.3494 104.062C46.3693 102.618 48.7932 101.896 51.6211 101.896C54.0787 101.896 56.2164 102.35 58.0344 103.256V101.745C58.0344 98.6558 56.3343 97.1111 52.9341 97.1111C50.1062 97.1111 47.3793 97.9842 44.7534 99.7303L42.9859 94.9955C46.1168 93.0143 49.6012 92.0237 53.439 92.0237C60.2731 92.0237 63.6902 95.2474 63.6902 101.695V118.367H58.0344V116.353C56.2164 118.099 53.8262 118.972 50.8636 118.972ZM51.9241 113.884C54.348 113.884 56.3848 113.028 58.0344 111.315V107.991C56.4858 107.219 54.651 106.833 52.5301 106.833C50.9141 106.833 49.5675 107.135 48.4902 107.739C47.4466 108.344 46.9248 109.234 46.9248 110.409C46.9248 111.45 47.3624 112.289 48.2377 112.927C49.113 113.565 50.3418 113.884 51.9241 113.884Z" fill="black"/>
<path d="M85.7685 92.0237C88.5964 92.0237 90.8856 92.88 92.6362 94.5926C94.4205 96.2716 95.3126 98.958 95.3126 102.652V118.367H89.5054V103.861C89.5054 101.644 89.0172 100.033 88.0409 99.0251C87.0646 98.0177 85.7685 97.514 84.1526 97.514C80.3484 97.514 78.4463 99.596 78.4463 103.76V118.367H72.639V92.6281H77.9918V95.8014C78.4968 94.794 79.4731 93.921 80.9207 93.1822C82.402 92.4099 84.0179 92.0237 85.7685 92.0237Z" fill="black"/>
<path d="M114.159 118.972C110.624 118.972 107.847 117.796 105.827 115.446C103.807 113.062 102.797 109.737 102.797 105.473C102.797 101.342 103.824 98.0681 105.877 95.6503C107.965 93.2326 110.675 92.0237 114.008 92.0237C116.768 92.0237 118.906 92.8464 120.421 94.4918V84.6696L126.228 82V118.367H120.421V116.403C119.882 117.108 119.041 117.713 117.896 118.216C116.785 118.72 115.539 118.972 114.159 118.972ZM114.967 113.431C117.492 113.431 119.31 112.592 120.421 110.913V100.033C119.209 98.3535 117.357 97.514 114.866 97.514C112.88 97.514 111.348 98.2024 110.271 99.5792C109.193 100.956 108.655 102.92 108.655 105.473C108.655 107.89 109.193 109.821 110.271 111.265C111.382 112.709 112.947 113.431 114.967 113.431Z" fill="black"/>
</svg>
